<svg xmlns="http://www.w3.org/2000/svg" viewBox="0 0 64 64">
  <defs>
    <linearGradient id="bg" x1="0%" y1="0%" x2="100%" y2="100%">
      <stop offset="0%" stop-color="#23160d"/>
      <stop offset="100%" stop-color="#bf4b28"/>
    </linearGradient>
  </defs>
  <rect width="64" height="64" rx="16" fill="url(#bg)"/>
  <path d="M18 20h28a4 4 0 0 1 4 4v16a4 4 0 0 1-4 4H18a4 4 0 0 1-4-4V24a4 4 0 0 1 4-4Z" fill="#f8efe2"/>
  <path d="M18 20v24M46 20v24" stroke="#bf4b28" stroke-width="3"/>
  <circle cx="22" cy="26" r="2.5" fill="#bf4b28"/>
  <circle cx="22" cy="34" r="2.5" fill="#bf4b28"/>
  <circle cx="22" cy="42" r="2.5" fill="#bf4b28"/>
  <circle cx="42" cy="26" r="2.5" fill="#bf4b28"/>
  <circle cx="42" cy="34" r="2.5" fill="#bf4b28"/>
  <circle cx="42" cy="42" r="2.5" fill="#bf4b28"/>
  <path d="M28 27v10l10-5-10-5Z" fill="#23160d"/>
</svg>
